<?xml version="1.0" encoding="UTF-8" standalone="no"?>
<svg
   xmlns:dc="http://purl.org/dc/elements/1.1/"
   xmlns:cc="http://creativecommons.org/ns#"
   xmlns:rdf="http://www.w3.org/1999/02/22-rdf-syntax-ns#"
   xmlns:svg="http://www.w3.org/2000/svg"
   xmlns="http://www.w3.org/2000/svg"
   xmlns:sodipodi="http://sodipodi.sourceforge.net/DTD/sodipodi-0.dtd"
   xmlns:inkscape="http://www.inkscape.org/namespaces/inkscape"
   width="806"
   height="598.9"
   viewBox="97 97.1 806 598.9"
   version="1.1"
   id="svg230"
   sodipodi:docname="controller_ds4.svg"
   inkscape:version="0.92.4 (5da689c313, 2019-01-14)">
  <metadata
     id="metadata236">
    <rdf:RDF>
      <cc:Work
         rdf:about="">
        <dc:format>image/svg+xml</dc:format>
        <dc:type
           rdf:resource="http://purl.org/dc/dcmitype/StillImage" />
        <dc:title></dc:title>
      </cc:Work>
    </rdf:RDF>
  </metadata>
  <defs
     id="defs234" />
  <sodipodi:namedview
     pagecolor="#ffffff"
     bordercolor="#666666"
     borderopacity="1"
     objecttolerance="10"
     gridtolerance="10"
     guidetolerance="10"
     inkscape:pageopacity="0"
     inkscape:pageshadow="2"
     inkscape:window-width="1920"
     inkscape:window-height="1018"
     id="namedview232"
     showgrid="false"
     inkscape:zoom="1"
     inkscape:cx="498.58201"
     inkscape:cy="343.46239"
     inkscape:window-x="1912"
     inkscape:window-y="-8"
     inkscape:window-maximized="1"
     inkscape:current-layer="svg230" />
  <pattern
     id="a"
     width="40"
     height="103"
     x="97"
     y="696"
     overflow="visible"
     patternUnits="userSpaceOnUse"
     viewBox="0 -231.7 40 103">
    <path
       fill="none"
       d="M0-128.7h40v-103H0z"
       id="path4" />
    <path
       fill="none"
       d="M0-128.7h40v-103H0z"
       id="path6" />
    <path
       d="M34.5-360.5h3V-206h-3zM26.5-360.5h3V-206h-3zM18.5-360.5h3V-206h-3zM10.5-360.5h3V-206h-3zM2.5-360.5h3V-206h-3z"
       id="path8" />
    <path
       d="M34.5-257.5h3V-103h-3zM26.5-257.5h3V-103h-3zM18.5-257.5h3V-103h-3zM10.5-257.5h3V-103h-3zM2.5-257.5h3V-103h-3z"
       id="path10" />
    <path
       d="M34.5-154.5h3V0h-3zM26.5-154.5h3V0h-3zM18.5-154.5h3V0h-3zM10.5-154.5h3V0h-3zM2.5-154.5h3V0h-3z"
       id="path12" />
  </pattern>
  <pattern
     id="b"
     width="40"
     height="103"
     x="97"
     y="696"
     overflow="visible"
     patternUnits="userSpaceOnUse"
     viewBox="0 -231.7 40 103">
    <path
       fill="none"
       d="M0-128.7h40v-103H0z"
       id="path15" />
    <path
       fill="none"
       d="M0-128.7h40v-103H0z"
       id="path17" />
    <path
       d="M34.5-360.5h3V-206h-3zM26.5-360.5h3V-206h-3zM18.5-360.5h3V-206h-3zM10.5-360.5h3V-206h-3zM2.5-360.5h3V-206h-3z"
       id="path19" />
    <path
       d="M34.5-257.5h3V-103h-3zM26.5-257.5h3V-103h-3zM18.5-257.5h3V-103h-3zM10.5-257.5h3V-103h-3zM2.5-257.5h3V-103h-3z"
       id="path21" />
    <path
       d="M34.5-154.5h3V0h-3zM26.5-154.5h3V0h-3zM18.5-154.5h3V0h-3zM10.5-154.5h3V0h-3zM2.5-154.5h3V0h-3z"
       id="path23" />
  </pattern>
  <pattern
     id="c"
     width="71"
     height="71"
     x="97"
     y="696"
     overflow="visible"
     patternUnits="userSpaceOnUse"
     viewBox="0 -71 71 71">
    <path
       fill="none"
       d="M0 0h71v-71H0z"
       id="path26" />
    <path
       fill="none"
       d="M0 0h71v-71H0z"
       id="path28" />
    <path
       fill="#B3B3B3"
       d="M41.8-35.5c0-3.5-2.8-6.3-6.3-6.3s-6.3 2.8-6.3 6.3 2.8 6.3 6.3 6.3 6.3-2.8 6.3-6.3z"
       id="path30" />
  </pattern>
  <path
     fill="#70b6be"
     d="M898.3 515.7c-2.9-15.5-17.7-102.5-32-144.6-9.4-27.7-13.1-53-17-64.9-12-35.7-33-65.7-33-65.7s-9.5-13.1-10.1-16.3c-.6-3.3-4.7-8.6-4.7-8.6s-17.4-5.7-62.3-5.7-53.7 5-53.7 5-2.4 2.9-5.9 4.8c-3.5 1.8-11.7 1.7-11.7 1.7h-33.4s-.6-.1-.9.3c-.4.4-.6 2-.6 2H366.9s-.3-1.7-.6-2c-.4-.4-.9-.3-.9-.3H332s-8.2.2-11.7-1.7c-3.5-1.8-5.9-4.8-5.9-4.8s-8.8-5-53.7-5c-44.8 0-62.3 5.7-62.3 5.7s-4.1 5.3-4.7 8.6c-.6 3.3-10.1 16.3-10.1 16.3s-21 30-33 65.7c-4 11.9-7.7 37.2-17 64.9-14.3 42.1-29.1 129.1-32 144.6-4.3 23.2-4.6 90.2-4.6 90.2s4.5 53.4 36.2 74.9 56.7 14 56.7 14 33.1-8.2 57.8-41.9 56.6-129.2 56.6-129.2 2.2-3 5.7-5.3 6.3-2.6 6.3-2.6l183.7.1 183.7-.1s2.8.3 6.3 2.6 5.7 5.3 5.7 5.3 31.9 95.4 56.6 129.2 57.8 41.9 57.8 41.9 25 7.5 56.7-14 36.2-74.9 36.2-74.9-.3-67-4.7-90.2z"
     id="path33"
     style="fill:#e1bcc4;fill-opacity:1" />
  <path
     fill="#FFF"
     d="M133.6 373.1c9.4-27.7 13.1-53 17-64.9 12-35.7 33-65.7 33-65.7s9.5-13.1 10.1-16.3c.6-3.3 4.7-8.6 4.7-8.6s17.4-5.7 62.3-5.7c44.8 0 53.7 5 53.7 5s2.4 2.9 5.9 4.8c3.5 1.8 11.7 1.7 11.7 1.7h33.4s.6-.1.9.3c.4.4.6 2 .6 2h266.2s.3-1.7.6-2c.4-.4.9-.3.9-.3H668s8.2.2 11.7-1.7c3.5-1.8 5.9-4.8 5.9-4.8s8.8-5 53.7-5 62.3 5.7 62.3 5.7 4.1 5.3 4.7 8.6c.6 3.3 10.1 16.3 10.1 16.3s21 30 33 65.7c4 11.9 7.7 37.2 17 64.9 14.3 42.1 29.1 129.1 32 144.6 3.9 20.9 4.6 77.3 4.7 88.3v-.1s-.3-66.9-4.7-90.1c-2.9-15.5-17.7-102.5-32-144.6-9.4-27.7-13.1-53-17-64.9-12-35.7-33-65.7-33-65.7s-9.5-13.1-10.1-16.3c-.6-3.3-4.7-8.6-4.7-8.6s-17.4-5.7-62.3-5.7-53.7 5-53.7 5-2.4 2.9-5.9 4.8c-3.5 1.8-11.7 1.7-11.7 1.7h-33.4s-.6-.1-.9.3c-.4.4-.6 2-.6 2H366.9s-.3-1.7-.6-2c-.4-.4-.9-.3-.9-.3H332s-8.2.2-11.7-1.7c-3.5-1.8-5.9-4.8-5.9-4.8s-8.8-5-53.7-5c-44.8 0-62.3 5.7-62.3 5.7s-4.1 5.3-4.7 8.6c-.6 3.3-10.1 16.3-10.1 16.3s-21 30-33 65.7c-4 11.9-7.7 37.2-17 64.9-14.3 42.1-29.1 129.1-32 144.6-4.3 23.1-4.6 90.1-4.6 90.1v.1c.1-10.9.7-67.4 4.7-88.3 2.9-15.4 17.6-102.5 31.9-144.6z"
     opacity=".06"
     id="path35" />
  <path
     fill="#87c1c8"
     d="M448.2 457.1c0-42.2-34.3-76.5-76.5-76.5s-76.5 34.3-76.5 76.5c0 .7 0 1.3.1 2 0 .7-.1 1.3-.1 2 0 42.2 34.3 76.5 76.5 76.5s76.5-34.3 76.5-76.5c0-.7 0-1.3-.1-2 0-.7.1-1.4.1-2z"
     id="path37"
     style="fill:#e9d0d9;fill-opacity:1" />
  <circle
     cx="371.7"
     cy="453.1"
     r="73"
     fill="#99cad0"
     id="circle39"
     style="fill:#f0e3ed;fill-opacity:1" />
  <circle
     cx="371.7"
     cy="453.1"
     r="51.5"
     id="circle41" />
  <path
     fill="#87c1c8"
     d="M704.8 457.1c0-42.2-34.3-76.5-76.5-76.5s-76.5 34.3-76.5 76.5c0 .7 0 1.3.1 2 0 .7-.1 1.3-.1 2 0 42.2 34.3 76.5 76.5 76.5s76.5-34.3 76.5-76.5c0-.7 0-1.3-.1-2 .1-.7.1-1.4.1-2z"
     id="path43"
     style="fill:#e9d0d9;fill-opacity:1" />
  <circle
     cx="628.3"
     cy="453.1"
     r="73"
     fill="#92c7cd"
     id="circle45"
     style="fill:#f0e3ed;fill-opacity:1" />
  <circle
     cx="628.3"
     cy="453.1"
     r="51.5"
     id="circle47" />
  <path
     fill="#121212"
     d="M631.8 225.1c-.4-3.2-3.3-5.6-6.5-5.6H374.7c-3.2 0-6.1 2.3-6.5 5.6-.1.7-.1 1.4-.1 2.1v127.4c0 8.9 7.2 16.1 16.1 16.1h231.6c8.9 0 16.1-7.2 16.1-16.1V227.2c.1-.7 0-1.4-.1-2.1z"
     id="path49"
     style="fill:#5d738b;fill-opacity:1" />
  <circle
     cx="749.3"
     cy="341.9"
     r="94.3"
     fill="#99cad0"
     id="circle51"
     style="fill:#f0e3ed;fill-opacity:1" />
  <circle
     cx="250.7"
     cy="341.9"
     r="94.3"
     fill="#99cad0"
     id="circle53"
     style="fill:#f0e3ed;fill-opacity:1" />
  <path
     fill="#63263f"
     d="M327.4 351.2l9.5-8.9c.5-.5.5-1.2 0-1.7l-9.5-8.9c-.7-.7-1.9-.2-1.9.8v17.8c-.1 1 1.1 1.5 1.9.9zM242 266.9h17.8c1 0 1.5-1.2.8-1.9l-8.9-9.5c-.5-.5-1.2-.5-1.7 0l-8.9 9.5c-.6.7-.1 1.9.9 1.9zM174.5 331.7l-9.5 8.9c-.5.5-.5 1.2 0 1.7l9.5 8.9c.7.7 1.9.2 1.9-.8v-17.8c0-1.1-1.2-1.6-1.9-.9zM259.8 415.9H242c-1 0-1.5 1.2-.8 1.9l8.9 9.5c.5.5 1.2.5 1.7 0l8.9-9.5c.6-.7.1-1.9-.9-1.9z"
     id="path55"
     style="fill:#7c9aba;fill-opacity:1" />
  <g
     id="g103">
    <path
       fill="#E6E6E6"
       d="M202.2 641.6c-40.5-2.8-75.8-20.3-87.3-30.5-11.5-10.3-17.5-31.6-17.5-31.6-.4 15-.4 26.3-.4 26.3s4.5 53.4 36.2 74.9 56.7 14 56.7 14 33.1-8.2 57.8-41.9c4.5-6.2 9.3-14.5 14.1-23.8-.1 0-19.2 15.3-59.6 12.6z"
       opacity=".1"
       id="path57" />
    <path
       fill="#63263f"
       d="M202.2 641.6c-40.5-2.8-75.8-20.3-87.3-30.5-11.5-10.3-17.5-31.6-17.5-31.6-.4 15-.4 26.3-.4 26.3s4.5 53.4 36.2 74.9 56.7 14 56.7 14 33.1-8.2 57.8-41.9c4.5-6.2 9.3-14.5 14.1-23.8-.1 0-19.2 15.3-59.6 12.6z"
       id="path59"
       style="fill:#7c9aba;fill-opacity:1" />
    <path
       d="M187 689.6c-12.5 1.8-31.3-2-45.1-7.7-13.6-5.7-24-16.4-24-16.4 4.2 5.8 9.3 11.1 15.3 15.2 31.7 21.5 56.7 14 56.7 14s11.7-2.9 26.3-12.3c0 0-14.6 5.2-29.2 7.2z"
       opacity=".22"
       id="path61" />
    <path
       fill="#E6E6E6"
       d="M797.8 641.6c40.5-2.8 75.8-20.3 87.3-30.5s17.5-31.5 17.5-31.5c.4 15 .4 26.3.4 26.3s-4.5 53.4-36.2 74.9-56.7 14-56.7 14-33.1-8.2-57.8-41.9c-4.5-6.2-9.3-14.5-14.1-23.8.1-.1 19.2 15.2 59.6 12.5z"
       opacity=".1"
       id="path63" />
    <path
       fill="#63263f"
       d="M797.8 641.6c40.5-2.8 75.8-20.3 87.3-30.5s17.5-31.5 17.5-31.5c.4 15 .4 26.3.4 26.3s-4.5 53.4-36.2 74.9-56.7 14-56.7 14-33.1-8.2-57.8-41.9c-4.5-6.2-9.3-14.5-14.1-23.8.1-.1 19.2 15.2 59.6 12.5z"
       id="path65"
       style="fill:#7c9aba;fill-opacity:1" />
    <path
       d="M813 689.6c12.5 1.8 31.3-2 45.1-7.7 13.6-5.7 24-16.4 24-16.4-4.2 5.8-9.3 11.1-15.3 15.2-31.7 21.5-56.7 14-56.7 14s-11.7-2.9-26.3-12.3c0 0 14.6 5.2 29.2 7.2z"
       opacity=".22"
       id="path67" />
    <g
       id="g73">
      <path
         fill="#351321"
         d="M337.5 240.6c6.9 0 12.5 5.6 12.5 12.5v18.3c0 6.9-5.6 12.5-12.5 12.5s-12.5-5.6-12.5-12.5v-18.3c0-6.9 5.6-12.5 12.5-12.5m0-1.7c-7.8 0-14.2 6.4-14.2 14.2v18.3c0 7.8 6.4 14.2 14.2 14.2s14.2-6.4 14.2-14.2v-18.3c0-7.9-6.4-14.2-14.2-14.2z"
         id="path69"
         style="fill:#5d738b;fill-opacity:1" />
      <path
         fill="#63263f"
         d="M337.5 240.6c-6.9 0-12.5 5.6-12.5 12.5v18.3c0 6.9 5.6 12.5 12.5 12.5s12.5-5.6 12.5-12.5v-18.3c0-6.9-5.6-12.5-12.5-12.5z"
         id="path71"
         style="fill:#7c9aba;fill-opacity:1" />
    </g>
    <g
       id="g79">
      <path
         fill="#351321"
         d="M662.5 240.6c6.9 0 12.5 5.6 12.5 12.5v18.3c0 6.9-5.6 12.5-12.5 12.5s-12.5-5.6-12.5-12.5v-18.3c0-6.9 5.6-12.5 12.5-12.5m0-1.7c-7.8 0-14.2 6.4-14.2 14.2v18.3c0 7.8 6.4 14.2 14.2 14.2s14.2-6.4 14.2-14.2v-18.3c0-7.9-6.4-14.2-14.2-14.2z"
         id="path75"
         style="fill:#5d738b;fill-opacity:1" />
      <path
         fill="#63263f"
         d="M662.5 240.6c-6.9 0-12.5 5.6-12.5 12.5v18.3c0 6.9 5.6 12.5 12.5 12.5s12.5-5.6 12.5-12.5v-18.3c0-6.9-5.6-12.5-12.5-12.5z"
         id="path77"
         style="fill:#7c9aba;fill-opacity:1" />
    </g>
    <g
       id="g101">
      <path
         fill="#63263f"
         d="M238.2 344.3c1.4-2 1.2-2.9 1.2-2.9s.2-.9-1.2-2.9-15-13.6-15.7-14c-.7-.4-28.5-2.2-31.4 1.3-2.9 3.5-2.6 15.6-2.6 15.6s-.3 12.1 2.6 15.6 30.7 1.7 31.4 1.3 14.3-12 15.7-14z"
         id="path81"
         style="fill:#7c9aba;fill-opacity:1" />
      <path
         d="M238.2 344.3c1.4-2 1.2-2.9 1.2-2.9s.2-.9-1.2-2.9c-.9-1.3-6.9-6.6-11.2-10.3-2.1 3.9-3.4 8.4-3.4 13.2 0 4.8 1.2 9.3 3.4 13.2 4.3-3.7 10.3-9 11.2-10.3z"
         opacity=".25"
         id="path83" />
      <path
         fill="#63263f"
         d="M248 328.7c2 1.4 2.9 1.2 2.9 1.2s.9.2 2.9-1.2 13.6-15 14-15.7c.4-.7 2.2-28.5-1.3-31.4-3.5-2.9-15.6-2.6-15.6-2.6s-12.1-.3-15.6 2.6-1.7 30.7-1.3 31.4c.5.7 12 14.3 14 15.7z"
         id="path85"
         style="fill:#7c9aba;fill-opacity:1" />
      <path
         d="M248 328.7c2 1.4 2.9 1.2 2.9 1.2s.9.2 2.9-1.2c1.3-.9 6.6-6.9 10.3-11.2-3.9-2.1-8.4-3.4-13.2-3.4s-9.3 1.2-13.2 3.4c3.8 4.3 9 10.3 10.3 11.2z"
         opacity=".25"
         id="path87" />
      <g
         id="g93">
        <path
           fill="#63263f"
           d="M310.7 325.9c-2.9-3.5-30.7-1.7-31.4-1.3-.7.4-14.3 12-15.7 14s-1.2 2.9-1.2 2.9-.2.9 1.2 2.9 15 13.6 15.7 14c.7.4 28.5 2.2 31.4-1.3 2.9-3.5 2.6-15.6 2.6-15.6s.3-12.1-2.6-15.6z"
           id="path89"
           style="fill:#7c9aba;fill-opacity:1" />
        <path
           d="M274.9 328.3c-4.3 3.7-10.3 9-11.2 10.3-1.4 2-1.2 2.9-1.2 2.9s-.2.9 1.2 2.9c.9 1.3 6.9 6.6 11.2 10.3 2.1-3.9 3.4-8.4 3.4-13.2 0-4.8-1.3-9.3-3.4-13.2z"
           opacity=".25"
           id="path91" />
      </g>
      <g
         id="g99">
        <path
           fill="#63263f"
           d="M253.8 354.2c-2-1.4-2.9-1.2-2.9-1.2s-.9-.2-2.9 1.2-13.6 15-14 15.7-2.2 28.5 1.3 31.4 15.6 2.6 15.6 2.6 12.1.3 15.6-2.6 1.7-30.7 1.3-31.4c-.4-.8-12-14.3-14-15.7z"
           id="path95"
           style="fill:#7c9aba;fill-opacity:1" />
        <path
           d="M253.8 354.2c-2-1.4-2.9-1.2-2.9-1.2s-.9-.2-2.9 1.2c-1.3.9-6.6 6.9-10.3 11.2 3.9 2.1 8.4 3.4 13.2 3.4s9.3-1.2 13.2-3.4c-3.7-4.3-9-10.3-10.3-11.2z"
           opacity=".25"
           id="path97" />
      </g>
    </g>
  </g>
  <g
     fill="#FFF"
     opacity=".12"
     id="g135">
    <path
       d="M500 416.6c-2.1 0-3.8-1.6-4.1-3.6 0 .2-.1.3-.1.5 0 2.3 1.8 4.1 4.1 4.1s4.1-1.8 4.1-4.1c0-.2 0-.3-.1-.5-.1 2-1.8 3.6-3.9 3.6zM500 396.7c2.3 0 4.1-1.8 4.1-4.1 0-.2 0-.3-.1-.5-.2 2-2 3.6-4.1 3.6s-3.8-1.6-4.1-3.6c0 .2-.1.3-.1.5.2 2.2 2 4.1 4.3 4.1zM497.2 402.8c0-.2 0-.3-.1-.5-.2 2-2 3.6-4.1 3.6s-3.8-1.6-4.1-3.6c0 .2-.1.3-.1.5 0 2.3 1.8 4.1 4.1 4.1 2.4 0 4.3-1.8 4.3-4.1zM482.4 402.3c-.2 2-2 3.6-4.1 3.6s-3.8-1.6-4.1-3.6c0 .2-.1.3-.1.5 0 2.3 1.8 4.1 4.1 4.1s4.1-1.8 4.1-4.1c.2-.2.2-.3.1-.5zM485.8 416.6c-2.1 0-3.8-1.6-4.1-3.6 0 .2-.1.3-.1.5 0 2.3 1.8 4.1 4.1 4.1s4.1-1.8 4.1-4.1c0-.2 0-.3-.1-.5-.1 2-1.8 3.6-3.9 3.6zM485.8 396.7c2.3 0 4.1-1.8 4.1-4.1 0-.2 0-.3-.1-.5-.2 2-2 3.6-4.1 3.6s-3.8-1.6-4.1-3.6c0 .2-.1.3-.1.5.1 2.2 2 4.1 4.3 4.1zM475.6 392.6c0-.2 0-.3-.1-.5-.2 2-2 3.6-4.1 3.6s-3.8-1.6-4.1-3.6c0 .2-.1.3-.1.5 0 2.3 1.8 4.1 4.1 4.1 2.4 0 4.3-1.9 4.3-4.1zM511 402.3c-.2 2-2 3.6-4.1 3.6s-3.8-1.6-4.1-3.6c0 .2-.1.3-.1.5 0 2.3 1.8 4.1 4.1 4.1s4.1-1.8 4.1-4.1c.2-.2.1-.3.1-.5zM521.6 405.9c-2.1 0-3.8-1.6-4.1-3.6 0 .2-.1.3-.1.5 0 2.3 1.8 4.1 4.1 4.1s4.1-1.8 4.1-4.1c0-.2 0-.3-.1-.5 0 2.1-1.8 3.6-3.9 3.6zM514.3 416.6c-2.1 0-3.8-1.6-4.1-3.6 0 .2-.1.3-.1.5 0 2.3 1.8 4.1 4.1 4.1s4.1-1.8 4.1-4.1c0-.2 0-.3-.1-.5-.1 2-1.8 3.6-3.9 3.6zM514.3 396.7c2.3 0 4.1-1.8 4.1-4.1 0-.2 0-.3-.1-.5-.2 2-2 3.6-4.1 3.6-2.1 0-3.8-1.6-4.1-3.6 0 .2-.1.3-.1.5.1 2.2 2 4.1 4.3 4.1zM528.6 395.7c-2.1 0-3.8-1.6-4.1-3.6 0 .2-.1.3-.1.5 0 2.3 1.8 4.1 4.1 4.1s4.1-1.8 4.1-4.1c0-.2 0-.3-.1-.5-.1 2-1.8 3.6-3.9 3.6z"
       id="path133" />
  </g>
  <path
     fill="#0B0B0F"
     d="M533.6 518.1h-67.9c-2.8 0-4.6.6-4.6-2.2 0-2.8 2.3-5 5-5H534c2.8 0 5 2.3 5 5 .1 2.7-2.6 2.2-5.4 2.2z"
     id="path137" />
  <path
     d="M505.3 515.9h-36.5c-.5 0-.9-.4-.9-.9 0-1.1.9-2 2-2h34.2c1.1 0 2 .9 2 2 .1.5-.3.9-.8.9zM527.5 516.7h-4.2c-.9 0-1.7-.8-1.7-1.7 0-1.6 1.3-2.8 2.8-2.8h1.9c1.6 0 2.8 1.3 2.8 2.8.1 1-.6 1.7-1.6 1.7z"
     id="path139" />
  <g
     id="g178">
    <path
       fill="#63263f"
       d="M806.9 368.1c-14.5 0-26.3-11.8-26.3-26.3s11.8-26.3 26.3-26.3 26.3 11.8 26.3 26.3-11.8 26.3-26.3 26.3z"
       id="path150"
       style="fill:#7c9aba;fill-opacity:1" />
    <path
       fill="#351321"
       d="M806.9 316.6c13.9 0 25.3 11.3 25.3 25.3s-11.3 25.2-25.3 25.2-25.3-11.3-25.3-25.3 11.4-25.2 25.3-25.2m0-2c-15 0-27.3 12.2-27.3 27.3 0 15.1 12.2 27.3 27.3 27.3s27.3-12.2 27.3-27.3c0-15.1-12.3-27.3-27.3-27.3z"
       id="path152"
       style="fill:#5d738b;fill-opacity:1" />
    <path
       fill="#ecccdb"
       d="M806.9 323c-10.4 0-18.9 8.5-18.9 18.9s8.5 18.9 18.9 18.9 18.9-8.5 18.9-18.9c0-10.4-8.4-18.9-18.9-18.9zm0 34.9c-8.9 0-16-7.2-16-16 0-8.9 7.2-16 16-16s16 7.2 16 16c.1 8.9-7.1 16-16 16z"
       id="path154"
       style="fill:#f0e3ed;fill-opacity:1" />
    <path
       fill="#63263f"
       d="M749.3 425.7c-14.5 0-26.3-11.8-26.3-26.3s11.8-26.3 26.3-26.3 26.3 11.8 26.3 26.3-11.8 26.3-26.3 26.3z"
       id="path156"
       style="fill:#7c9aba;fill-opacity:1" />
    <path
       fill="#351321"
       d="M749.3 374.2c13.9 0 25.3 11.3 25.3 25.3s-11.3 25.3-25.3 25.3-25.3-11.3-25.3-25.3 11.4-25.3 25.3-25.3m0-2c-15 0-27.3 12.2-27.3 27.3 0 15 12.2 27.3 27.3 27.3s27.3-12.2 27.3-27.3c0-15-12.2-27.3-27.3-27.3z"
       id="path158"
       style="fill:#5d738b;fill-opacity:1" />
    <path
       fill="#ecccdb"
       d="M763.7 387.1l-2-2-12.4 12.4-12.3-12.4-2 2 12.3 12.4-12.3 12.3 2 2 12.3-12.3 12.4 12.3 2-2-12.4-12.3z"
       id="path160"
       style="fill:#f0e3ed;fill-opacity:1" />
    <g
       id="g168">
      <path
         fill="#63263f"
         d="M691.8 368.1c-14.5 0-26.3-11.8-26.3-26.3s11.8-26.3 26.3-26.3 26.3 11.8 26.3 26.3-11.9 26.3-26.3 26.3z"
         id="path162"
         style="fill:#7c9aba;fill-opacity:1" />
      <path
         fill="#351321"
         d="M691.7 316.6c13.9 0 25.3 11.3 25.3 25.3s-11.3 25.2-25.3 25.2-25.3-11.3-25.3-25.3 11.4-25.2 25.3-25.2m0-2c-15 0-27.3 12.2-27.3 27.3 0 15.1 12.2 27.3 27.3 27.3S719 357 719 341.9c0-15.1-12.2-27.3-27.3-27.3z"
         id="path164"
         style="fill:#5d738b;fill-opacity:1" />
      <path
         fill="#ecccdb"
         d="M703.3 327.5h-25.8v28.6h28.6v-28.6h-2.8zm0 25.9h-23v-23h23v23z"
         id="path166"
         style="fill:#f0e3ed;fill-opacity:1" />
    </g>
    <g
       id="g176">
      <path
         fill="#63263f"
         d="M749.3 310.6c-14.5 0-26.3-11.8-26.3-26.3s11.8-26.3 26.3-26.3 26.3 11.8 26.3 26.3-11.8 26.3-26.3 26.3z"
         id="path170"
         style="fill:#7c9aba;fill-opacity:1" />
      <path
         fill="#351321"
         d="M749.3 259.1c13.9 0 25.3 11.3 25.3 25.3s-11.3 25.3-25.3 25.3-25.3-11.3-25.3-25.3 11.4-25.3 25.3-25.3m0-2c-15 0-27.3 12.2-27.3 27.3 0 15.1 12.2 27.3 27.3 27.3s27.3-12.2 27.3-27.3c0-15.1-12.2-27.3-27.3-27.3z"
         id="path172"
         style="fill:#5d738b;fill-opacity:1" />
      <path
         fill="#ecccdb"
         d="M765.3 292.3l-16-27.6-16 27.6-1.6 2.8h35.2l-1.6-2.8zm-16 0h-12.7l12.7-21.9 12.7 21.9h-12.7z"
         id="path174"
         style="fill:#f0e3ed;fill-opacity:1" />
    </g>
  </g>
  <g
     id="g200">
    <path
       fill="#451a2b"
       d="M794.2 207c0-.8-.4-1.5-1.1-1.9-4.5-2.9-23.4-13.6-51.5-13.6-26.9 0-41.1 5.9-45.1 8-.8.4-1.2 1.2-1.2 2 0 0 9.8-2.9 47.5-2.9s51.4 8.4 51.4 8.4z"
       id="path190"
       style="fill:#5d738b;fill-opacity:1" />
    <path
       fill="#63263f"
       d="M794.1 213.9V207s-13.7-8.4-51.4-8.4c-37.8 0-47.5 2.9-47.5 2.9v11c7.7-1.3 21.2-2.6 44.1-2.6 28.5.1 45.9 2.4 54.8 4z"
       id="path192"
       style="fill:#7c9aba;fill-opacity:1" />
    <g
       id="g198">
      <path
         d="M205.8 207c0-.8.4-1.5 1.1-1.9 4.5-2.9 23.4-13.6 51.5-13.6 26.9 0 41.1 5.9 45.1 8 .8.4 1.2 1.2 1.2 2 0 0-9.8-2.9-47.5-2.9s-51.4 8.4-51.4 8.4z"
         id="path194"
         style="fill:#5d738b;fill-opacity:1"
         fill="#451a2b" />
      <path
         fill="#63263f"
         d="M205.9 213.9V207s13.7-8.4 51.4-8.4c37.8 0 47.5 2.9 47.5 2.9v11c-7.7-1.3-21.2-2.6-44.1-2.6-28.5.1-45.9 2.4-54.8 4z"
         id="path196"
         style="fill:#7c9aba;fill-opacity:1" />
    </g>
  </g>
  <g
     id="g220">
    <path
       fill="#63263f"
       d="M794.2 187.9s-32.7-3.2-50.6-3.2-48.4 2.4-48.4 2.4 3.1-44.7 4.8-52c1.6-7.3 7.7-21.3 16.9-27.9s11.9-10.1 22.7-10.1 25.4 6.4 34.6 21.4c9.3 15 20 69.4 20 69.4z"
       id="path202"
       style="fill:#7c9aba;fill-opacity:1" />
    <path
       fill="#451a2b"
       d="M695.7 180.3s26.1-4.4 49-4.4c22.8 0 47.9 4.4 47.9 4.4 1 4.7 1.6 7.6 1.6 7.6s-32.7-3.2-50.6-3.2-48.4 2.4-48.4 2.4.2-2.7.5-6.8z"
       id="path204"
       style="fill:#5d738b;fill-opacity:1" />
    <g
       opacity=".08"
       id="g208">
      <path
         fill="#FFF"
         d="M745.7 162.8c-2.1 1.7-3.2 2.6-3.2 2.6-1.2 1.2-1.9 2.7-2 4.5h9.8v-2.6H744c.3-.5 1-1.2 2.1-1.9 1.4-.9 2.3-1.6 2.7-2.1.9-1 1.3-2.1 1.3-3.3 0-1.4-.5-2.5-1.4-3.3-.9-.8-2.1-1.2-3.5-1.2-3.1 0-4.7 1.7-4.7 5h2.7c0-1.8.7-2.7 2.1-2.7 1.3 0 2 .7 2 2.1.2 1.1-.4 2-1.6 2.9zM728.1 164.3h3c1.5 0 2.3.6 2.4 1.9.1 1.2.2 2.5.3 3.8h3.3v-.4c-.5-.2-.7-.7-.7-1.5 0-.2 0-.4.1-.8v-.7c0-1.7-.6-2.9-1.8-3.5 1.4-.5 2.2-1.6 2.2-3.4 0-1.3-.4-2.3-1.3-3-.8-.7-1.9-1-3.2-1h-7.3V170h3v-5.7zm0-6.2h3.7c1.4 0 2.1.6 2.1 1.9 0 1.3-.8 1.9-2.3 1.9h-3.5v-3.8z"
         id="path206" />
    </g>
    <g
       id="g218">
      <path
         fill="#63263f"
         d="M205.8 187.9s32.7-3.2 50.6-3.2 48.3 2.4 48.3 2.4-3.1-44.7-4.8-52c-1.6-7.3-7.7-21.3-16.9-27.9-9.1-6.7-11.8-10.1-22.6-10.1s-25.4 6.4-34.6 21.4-20 69.4-20 69.4z"
         id="path210"
         style="fill:#7c9aba;fill-opacity:1" />
      <path
         fill="#451a2b"
         d="M304.3 180.3s-26.1-4.4-49-4.4c-22.8 0-47.9 4.4-47.9 4.4-1 4.7-1.6 7.6-1.6 7.6s32.7-3.2 50.6-3.2 48.3 2.4 48.3 2.4-.1-2.7-.4-6.8z"
         id="path212"
         style="fill:#5d738b;fill-opacity:1" />
      <g
         opacity=".08"
         id="g216">
        <path
           fill="#FFF"
           d="M270.3 162.8c-2.1 1.7-3.2 2.6-3.2 2.6-1.2 1.2-1.9 2.7-2 4.5h9.8v-2.6h-6.2c.3-.5 1-1.2 2.1-1.9 1.4-.9 2.3-1.6 2.7-2.1.9-1 1.3-2.1 1.3-3.3 0-1.4-.5-2.5-1.4-3.3-.9-.8-2.1-1.2-3.5-1.2-3.1 0-4.7 1.7-4.7 5h2.7c0-1.8.7-2.7 2.1-2.7 1.3 0 2 .7 2 2.1.1 1.1-.5 2-1.7 2.9zM261.8 167.3h-7v-11.7h-3.1v14.3h10.1z"
           id="path214" />
      </g>
    </g>
  </g>
  <g
     fill="#63263f"
     id="g228"
     style="fill:#778ba2;fill-opacity:1">
    <path
       d="M644.6 231.7c0 2.1-1.5 3.8-4.1 3.8s-4.1-1.7-4.1-3.8c0-2 1.5-3.8 4.1-3.8s4.1 1.7 4.1 3.8zm-6.7 0c0 1.4.8 2.7 2.6 2.7s2.6-1.4 2.6-2.7c0-1.4-.8-2.7-2.6-2.7s-2.6 1.3-2.6 2.7zM645.9 228.1h3.8c2.4 0 2.9 1.3 2.9 2.2s-.5 2.2-2.9 2.2h-2.3v2.8h-1.5v-7.2zm1.5 3.4h2.2c.7 0 1.5-.3 1.5-1.2s-.7-1.2-1.5-1.2h-2.2v2.4zM653.1 228.1h6.9v1.1h-2.7v6.1h-1.5v-6.2h-2.7v-1zM661.1 228.1h1.5v7.2h-1.5v-7.2zM672.1 231.7c0 2.1-1.5 3.8-4.1 3.8s-4.1-1.7-4.1-3.8c0-2 1.5-3.8 4.1-3.8s4.1 1.7 4.1 3.8zm-6.7 0c0 1.4.8 2.7 2.6 2.7s2.6-1.4 2.6-2.7c0-1.4-.8-2.7-2.6-2.7s-2.6 1.3-2.6 2.7zM673.5 228.1h1.6l3.9 5.3v-5.3h1.4v7.2h-1.6l-3.9-5.3v5.3h-1.4v-7.2zM683.2 232.9c0 1.1 1 1.5 2.2 1.5 1.3 0 1.8-.6 1.8-1.1 0-.6-.4-.8-.7-.9-.6-.2-1.4-.3-2.6-.6-1.5-.3-1.9-1.1-1.9-1.8 0-1.5 1.6-2.1 3.1-2.1 1.8 0 3.3.8 3.3 2.3h-1.5c-.1-.9-.8-1.3-1.8-1.3-.7 0-1.6.2-1.6.9 0 .5.4.8 1 .9.1 0 2 .4 2.5.6 1.1.3 1.7 1.1 1.7 1.8 0 1.6-1.7 2.3-3.4 2.3-2 0-3.5-.8-3.6-2.6h1.5v.1z"
       id="path222"
       style="fill:#778ba2;fill-opacity:1" />
    <g
       id="g226"
       style="fill:#778ba2;fill-opacity:1">
      <path
         d="M319.2 232.9c0 1.1 1 1.5 2.2 1.5 1.3 0 1.8-.6 1.8-1.1 0-.6-.4-.8-.7-.9-.6-.2-1.4-.3-2.6-.6-1.5-.3-1.9-1.1-1.9-1.8 0-1.5 1.6-2.1 3.1-2.1 1.8 0 3.3.8 3.3 2.3h-1.5c-.1-.9-.8-1.3-1.8-1.3-.7 0-1.6.2-1.6.9 0 .5.4.8 1 .9.1 0 2 .4 2.5.6 1.1.3 1.7 1.1 1.7 1.8 0 1.6-1.7 2.3-3.4 2.3-2 0-3.5-.8-3.6-2.6h1.5v.1zM325.9 228.1h1.5v2.9h3.9v-2.9h1.5v7.2h-1.5v-3.2h-3.9v3.2h-1.5v-7.2zM336.9 228.1h1.6l3.3 7.2h-1.6l-.8-1.9H336l-.8 1.9h-1.5l3.2-7.2zm-.5 4.3h2.6l-1.3-3.1-1.3 3.1zM342.6 228.1h4.1c1.9 0 2.8.7 2.8 1.9 0 1.4-1.1 1.7-1.4 1.8.5.1 1.3.4 1.3 1.5 0 .8.1 1.6.5 1.9h-1.6c-.2-.3-.2-.7-.2-1.1 0-1.3-.3-1.9-1.7-1.9h-2.2v3h-1.5v-7.1h-.1zm1.5 3.2h2.5c1 0 1.5-.4 1.5-1.1 0-.9-.7-1.1-1.5-1.1h-2.4v2.2h-.1zM351.1 228.1h6.2v1.1h-4.7v1.9h4.3v1h-4.3v2.1h4.7v1.1h-6.2v-7.2z"
         id="path224"
         style="fill:#778ba2;fill-opacity:1" />
    </g>
  </g>
  <path
     style="fill:#7c9aba;stroke-width:0.29340002;fill-opacity:1"
     d="m 372.50048,350.59812 -2.3e-4,-92.89811 -2.5e-4,-36.30126 c 0,-1.08136 0.82271,-1.89874 1.9011,-1.89874 l 52.25409,-3.1e-4 h 73.35 l 73.35001,3.1e-4 h 52.14638 c 1.08287,0 2.00342,0.78974 2.00342,1.89875 v 71.45095 57.74842 c 0,8.61846 -7.00573,15.60189 -15.60594,15.60189 l -111.89387,-3.1e-4 h -111.9033 c -8.61804,0 -15.60141,-6.97064 -15.60141,-15.60158 z M 513.50159,337.1531 v -2.6406 h 5.2812 5.2812 v -2.3472 -2.3472 h -15.8436 -15.8436 v -2.6406 -2.6406 h -5.2812 -5.2812 v -2.6406 -2.6406 h -2.6406 -2.6406 v -5.2812 -5.2812 h -2.4939 -2.4939 v 2.4939 2.4939 h -2.6406 -2.6406 v -2.6406 -2.6406 h 2.4939 2.4939 v -15.8436 -15.8436 h -2.4939 -2.4939 v -2.6406 -2.6406 h -2.6406 -2.6406 v 2.6406 2.6406 h 2.6406 2.6406 v 5.2812 5.2812 h -2.6406 -2.6406 v -2.6406 -2.6406 h -2.6406 -2.6406 v -2.6406 -2.6406 h -2.6406 -2.6406 v -2.4939 -2.4939 h -2.4939 -2.4939 v 18.1908 18.1908 h 2.6406 2.6406 v 5.2812 5.2812 h 2.6406 2.6406 v 2.6406 2.6406 h 2.6406 2.6406 v 2.6406 2.6406 h 5.2812 5.2812 v 2.6406 2.6406 h 7.9218 7.9218 v 2.6406 2.6406 h 12.9096 12.9096 z m -52.5186,-31.3938 v -2.6406 h -2.6406 -2.6406 v -2.6406 -2.6406 h -2.6406 -2.6406 v -2.6406 -2.6406 h 2.6406 2.6406 v -2.6406 -2.6406 h 2.6406 2.6406 v 2.6406 2.6406 h 2.6406 2.6406 v 2.6406 2.6406 h -2.6406 -2.6406 v 2.6406 2.6406 h 2.6406 2.6406 v 2.6406 2.6406 h -2.6406 -2.6406 z m 0,-10.5624 v -2.6406 h -2.6406 -2.6406 v 2.6406 2.6406 h 2.6406 2.6406 z m 68.3622,31.6872 v -2.3472 h -2.3472 -2.3472 v 2.3472 2.3472 h 2.3472 2.3472 z m 15.8436,-15.8436 v -2.3472 h -4.9878 -4.9878 v 2.3472 2.3472 h 4.9878 4.9878 z m -21.1248,-5.2812 v -2.3472 h -5.2812 -5.2812 v -2.934 -2.934 h 2.6406 2.6406 v -2.3472 -2.3472 h -2.6406 -2.6406 v -2.934 -2.934 h 5.2812 5.2812 v -2.3472 -2.3472 h -7.6284 -7.6284 v 12.9096 12.9096 h 7.6284 7.6284 z m 10.5624,-5.2812 v -7.6284 h -2.3472 -2.3472 v 7.6284 7.6284 h 2.3472 2.3472 z m 15.8436,0 v -7.6284 h -2.3472 -2.3472 v 7.6284 7.6284 h 2.3472 2.3472 z m -47.5308,0 v -2.3472 h -5.2812 -5.2812 v -2.6406 -2.6406 h -2.3472 -2.3472 v 2.6406 2.6406 h -2.6406 -2.6406 v 2.3472 2.3472 h 10.269 10.269 z m -5.2812,-10.5624 v -2.3472 h -2.3472 -2.3472 v 2.3472 2.3472 h 2.3472 2.3472 z m 47.5308,0 v -2.3472 h -4.9878 -4.9878 v 2.3472 2.3472 h 4.9878 4.9878 z m -42.2496,-7.9218 v -4.9878 h -10.269 -10.269 v 2.3472 2.3472 h 7.9218 7.9218 v 2.6406 2.6406 h 2.3472 2.3472 z m -26.406,-10.7091 v -5.1345 h -2.4939 -2.4939 v 5.1345 5.1345 h 2.4939 2.4939 z m -20.8314,-4.9878 v -5.1345 h -2.4939 -2.4939 v 5.1345 5.1345 h 2.4939 2.4939 z m 10.5624,-2.7873 v -2.6406 h -2.6406 -2.6406 v -2.4939 -2.4939 h -2.4939 -2.4939 v 2.4939 2.4939 h 2.4939 2.4939 v 2.6406 2.6406 h 2.6406 2.6406 z m 15.5502,-2.7873 v -5.1345 h -2.4939 -2.4939 v 5.1345 5.1345 h 2.4939 2.4939 z m -15.5502,-7.6284 v -2.4939 h -2.4939 -2.4939 v 2.4939 2.4939 h 2.4939 2.4939 z m 20.8314,-0.2934 v -2.4939 h -2.4939 -2.4939 v 2.4939 2.4939 h 2.4939 2.4939 z m -10.269,-4.9878 v -2.4939 h -5.1345 -5.1345 v 2.4939 2.4939 h 5.1345 5.1345 z m 20.8314,-0.4401 v -2.6406 h 7.9218 7.9218 v -2.3472 -2.3472 h -18.1908 -18.1908 v 2.4939 2.4939 h 5.1345 5.1345 v 2.4939 2.4939 h 5.1345 5.1345 z"
     id="path9477"
     inkscape:connector-curvature="0"
     sodipodi:nodetypes="ccccccccccccccccccccccccccccccccccccccccccccccccccccccccccccccccccccccccccccccccccccccccccccccccccccccccccccccccccccccccccccccccccccccccccccccccccccccccccccccccccccccccccccccccccccccccccccccccccccccccccccccccccccccccccccccccccccccccccccccccccccccccccccccccccccccccccccccccccccccccccccccccccccccccccccccccccccccccccccccccaccccccccccccccc" />
</svg>
