<?xml version="1.0" encoding="UTF-8" standalone="no"?>
<svg
   xmlns:dc="http://purl.org/dc/elements/1.1/"
   xmlns:cc="http://creativecommons.org/ns#"
   xmlns:rdf="http://www.w3.org/1999/02/22-rdf-syntax-ns#"
   xmlns:svg="http://www.w3.org/2000/svg"
   xmlns="http://www.w3.org/2000/svg"
   xmlns:sodipodi="http://sodipodi.sourceforge.net/DTD/sodipodi-0.dtd"
   xmlns:inkscape="http://www.inkscape.org/namespaces/inkscape"
   width="224"
   height="112.3"
   viewBox="-193 340.7 224 112.3"
   version="1.1"
   id="svg62"
   sodipodi:docname="ds4_button.svg"
   inkscape:version="0.92.4 (5da689c313, 2019-01-14)">
  <metadata
     id="metadata68">
    <rdf:RDF>
      <cc:Work
         rdf:about="">
        <dc:format>image/svg+xml</dc:format>
        <dc:type
           rdf:resource="http://purl.org/dc/dcmitype/StillImage" />
      </cc:Work>
    </rdf:RDF>
  </metadata>
  <defs
     id="defs66" />
  <sodipodi:namedview
     pagecolor="#ffffff"
     bordercolor="#666666"
     borderopacity="1"
     objecttolerance="10"
     gridtolerance="10"
     guidetolerance="10"
     inkscape:pageopacity="0"
     inkscape:pageshadow="2"
     inkscape:window-width="1920"
     inkscape:window-height="1018"
     id="namedview64"
     showgrid="false"
     inkscape:zoom="1.2678571"
     inkscape:cx="51.853709"
     inkscape:cy="166.19338"
     inkscape:window-x="-8"
     inkscape:window-y="-8"
     inkscape:window-maximized="1"
     inkscape:current-layer="svg62" />
  <title
     id="title2" />
  <path
     fill="#E6E6E6"
     d="M-109.2 452c-14.5 0-26.3-11.8-26.3-26.3s11.8-26.2 26.3-26.2S-83 411.3-83 425.8-94.8 452-109.2 452z"
     id="path4" />
  <path
     fill="#F0F0F0"
     d="M-109.2 400.5c13.9 0 25.3 11.3 25.3 25.2S-95.2 451-109.2 451s-25.3-11.3-25.3-25.2 11.3-25.3 25.3-25.3m0-2c-15 0-27.3 12.2-27.3 27.2s12.2 27.3 27.3 27.3S-82 440.8-82 425.8s-12.2-27.3-27.2-27.3z"
     id="path6" />
  <path
     fill="#585858"
     d="M-109.2 406.9c-10.4 0-18.9 8.5-18.9 18.9s8.5 18.9 18.9 18.9 18.9-8.5 18.9-18.9c-.1-10.5-8.5-18.9-18.9-18.9zm0 34.9c-8.9 0-16-7.2-16-16 0-8.9 7.2-16 16-16s16 7.2 16 16-7.2 16-16 16z"
     id="path8" />
  <path
     fill="#E6E6E6"
     d="M-165.8 452c-14.4 0-26.2-11.7-26.2-26.2s11.8-26.2 26.3-26.2 26.3 11.8 26.3 26.2-11.9 26.2-26.4 26.2z"
     id="path10" />
  <path
     fill="#F0F0F0"
     d="M-165.7 400.5c13.9 0 25.3 11.3 25.3 25.2s-11.3 25.3-25.3 25.3-25.3-11.3-25.3-25.2 11.3-25.3 25.3-25.3m0-2c-15.1 0-27.3 12.3-27.3 27.3s12.2 27.3 27.3 27.3c15.1 0 27.3-12.2 27.3-27.3-.1-15-12.3-27.3-27.3-27.3z"
     id="path12" />
  <path
     fill="#585858"
     d="M-151.4 413.4l-2-2-12.3 12.4-12.4-12.4-2 2 12.3 12.4-12.3 12.3 2 2.1 12.4-12.4 12.3 12.4 2-2.1-12.3-12.3z"
     id="path14" />
  <g
     id="g22">
    <path
       fill="#E6E6E6"
       d="M-52.7 452c-14.5 0-26.2-11.8-26.2-26.3s11.8-26.2 26.2-26.2 26.3 11.8 26.3 26.2S-38.3 452-52.7 452z"
       id="path16" />
    <path
       fill="#F0F0F0"
       d="M-52.7 400.5c13.9 0 25.3 11.3 25.3 25.2S-38.7 451-52.7 451-78 439.7-78 425.8s11.3-25.3 25.3-25.3m0-2c-15 0-27.3 12.2-27.3 27.2S-67.8 453-52.7 453s27.3-12.2 27.3-27.3-12.3-27.2-27.3-27.2z"
       id="path18" />
    <path
       fill="#585858"
       d="M-41.2 411.4H-67V440h28.6v-28.6h-2.8zm0 25.9h-23v-23h23v23z"
       id="path20" />
  </g>
  <g
     id="g30">
    <path
       fill="#E6E6E6"
       d="M3.7 452c-14.5 0-26.3-11.8-26.3-26.3s11.8-26.2 26.3-26.2S30 411.3 30 425.8 18.2 452 3.7 452z"
       id="path24" />
    <path
       fill="#F0F0F0"
       d="M3.8 400.5c13.9 0 25.3 11.3 25.3 25.2S17.8 451 3.8 451s-25.3-11.3-25.3-25.2 11.3-25.3 25.3-25.3m0-2c-15 0-27.3 12.2-27.3 27.2S-11.3 453 3.8 453 31 440.8 31 425.8s-12.2-27.3-27.2-27.3z"
       id="path26" />
    <path
       fill="#585858"
       d="M19.7 433.8l-16-27.6-16 27.6-1.6 2.8h35.2l-1.6-2.8zm-15.9 0H-8.9l12.7-21.9 12.7 21.9H3.8z"
       id="path28" />
  </g>
  <g
     id="g60">
    <path
       fill="#63263f"
       d="M-109.2 394.2c-14.5 0-26.3-11.8-26.3-26.3s11.8-26.2 26.3-26.2S-83 353.5-83 367.9c0 14.4-11.8 26.3-26.2 26.3z"
       id="path32"
       style="fill:#7c9aba;fill-opacity:1" />
    <path
       fill="#351321"
       d="M-109.2 342.7C-95.3 342.7-84 354-84 368s-11.3 25.2-25.2 25.2-25.3-11.3-25.3-25.2c0-13.9 11.3-25.3 25.3-25.3m0-2c-15 0-27.3 12.2-27.3 27.3 0 15.1 12.2 27.3 27.3 27.3S-82 383-82 368s-12.2-27.3-27.2-27.3z"
       id="path34"
       style="fill:#5d738b;fill-opacity:1" />
    <path
       fill="#ecccdb"
       d="M-109.2 349.1c-10.4 0-18.9 8.5-18.9 18.9 0 10.4 8.5 18.9 18.9 18.9s18.9-8.5 18.9-18.9c-.1-10.5-8.5-18.9-18.9-18.9zm0 34.9c-8.9 0-16-7.2-16-16 0-8.9 7.2-16 16-16s16 7.2 16 16-7.2 16-16 16z"
       id="path36"
       style="fill:#f0e3ed;fill-opacity:1" />
    <path
       fill="#63263f"
       d="M-165.8 394.2c-14.4 0-26.2-11.8-26.2-26.2 0-14.4 11.8-26.3 26.2-26.3 14.4 0 26.3 11.8 26.3 26.3s-11.8 26.2-26.3 26.2z"
       id="path38"
       style="fill:#7c9aba;fill-opacity:1" />
    <path
       fill="#351321"
       d="M-165.7 342.7c13.9 0 25.3 11.3 25.3 25.3s-11.4 25.2-25.3 25.2S-191 381.9-191 368c0-13.9 11.3-25.3 25.3-25.3m0-2c-15.1 0-27.3 12.2-27.3 27.3 0 15 12.2 27.3 27.3 27.3 15.1 0 27.3-12.2 27.3-27.3-.1-15.1-12.3-27.3-27.3-27.3z"
       id="path40"
       style="fill:#5d738b;fill-opacity:1" />
    <path
       fill="#ecccdb"
       d="M-151.4 355.6l-2-2-12.3 12.3-12.4-12.3-2 2 12.3 12.3-12.3 12.4 2 2 12.4-12.3 12.3 12.3 2-2-12.3-12.4z"
       id="path42"
       style="fill:#f0e3ed;fill-opacity:1" />
    <g
       id="g50">
      <path
         fill="#63263f"
         d="M-52.7 394.9c-14.5 0-26.2-11.8-26.2-26.2s11.8-26.3 26.2-26.3 26.3 11.8 26.3 26.3-11.9 26.2-26.3 26.2z"
         id="path44"
         style="fill:#7c9aba;fill-opacity:1" />
      <path
         fill="#351321"
         d="M-52.7 343.4c13.9 0 25.3 11.3 25.3 25.3s-11.3 25.2-25.3 25.2S-78 382.6-78 368.6s11.3-25.2 25.3-25.2m0-2c-15 0-27.3 12.2-27.3 27.3s12.2 27.2 27.3 27.2 27.3-12.2 27.3-27.2-12.3-27.3-27.3-27.3z"
         id="path46"
         style="fill:#5d738b;fill-opacity:1" />
      <path
         fill="#ecccdb"
         d="M-41.2 354.2H-67v28.6h28.6v-28.6h-2.8zm0 25.9h-23v-23h23v23z"
         id="path48"
         style="fill:#f0e3ed;fill-opacity:1" />
    </g>
    <g
       id="g58">
      <path
         fill="#63263f"
         d="M3.7 395.5c-14.5 0-26.3-11.8-26.3-26.3s11.8-26.3 26.3-26.3S30 354.8 30 369.3s-11.8 26.2-26.3 26.2z"
         id="path52"
         style="fill:#7c9aba;fill-opacity:1" />
      <path
         fill="#351321"
         d="M3.8 344c13.9 0 25.3 11.3 25.3 25.3s-11.3 25.3-25.3 25.3-25.3-11.3-25.3-25.3S-10.2 344 3.8 344m0-2c-15 0-27.3 12.2-27.3 27.3s12.2 27.3 27.3 27.3S31 384.3 31 369.3 18.8 342 3.8 342z"
         id="path54"
         style="fill:#5d738b;fill-opacity:1" />
      <path
         fill="#ecccdb"
         d="M19.7 377.3l-16-27.6-16 27.6-1.6 2.8h35.2l-1.6-2.8zm-15.9 0H-8.9l12.7-21.9 12.7 21.9H3.8z"
         id="path56"
         style="fill:#f0e3ed;fill-opacity:1" />
    </g>
  </g>
</svg>
