<?xml version="1.0" encoding="UTF-8" standalone="no"?>
<svg
   xmlns:dc="http://purl.org/dc/elements/1.1/"
   xmlns:cc="http://creativecommons.org/ns#"
   xmlns:rdf="http://www.w3.org/1999/02/22-rdf-syntax-ns#"
   xmlns:svg="http://www.w3.org/2000/svg"
   xmlns="http://www.w3.org/2000/svg"
   xmlns:sodipodi="http://sodipodi.sourceforge.net/DTD/sodipodi-0.dtd"
   xmlns:inkscape="http://www.inkscape.org/namespaces/inkscape"
   id="Layer_1"
   width="286"
   height="94"
   viewBox="-816 494 286 94"
   version="1.1"
   sodipodi:docname="ds4_stick.svg"
   inkscape:version="0.92.4 (5da689c313, 2019-01-14)">
  <metadata
     id="metadata31">
    <rdf:RDF>
      <cc:Work
         rdf:about="">
        <dc:format>image/svg+xml</dc:format>
        <dc:type
           rdf:resource="http://purl.org/dc/dcmitype/StillImage" />
      </cc:Work>
    </rdf:RDF>
  </metadata>
  <defs
     id="defs29" />
  <sodipodi:namedview
     pagecolor="#ffffff"
     bordercolor="#666666"
     borderopacity="1"
     objecttolerance="10"
     gridtolerance="10"
     guidetolerance="10"
     inkscape:pageopacity="0"
     inkscape:pageshadow="2"
     inkscape:window-width="1920"
     inkscape:window-height="1018"
     id="namedview27"
     showgrid="false"
     inkscape:zoom="2.8086479"
     inkscape:cx="91.338958"
     inkscape:cy="51.24713"
     inkscape:window-x="-8"
     inkscape:window-y="-8"
     inkscape:window-maximized="1"
     inkscape:current-layer="g8139" />
  <title
     id="title2" />
  <style
     id="style8133">.st3{fill:#f0f0f0}.st4{fill:#ededed}.st5{fill:#ebebeb}</style>
  <g
     id="g8143">
    <g
       id="g8139">
      <path
         id="path8135"
         fill="#451a2b"
         d="M-769 586.5c-25.1 0-45.5-20.4-45.5-45.5s20.4-45.5 45.5-45.5 45.5 20.4 45.5 45.5-20.4 45.5-45.5 45.5z"
         style="fill:#5d738b;fill-opacity:1" />
      <path
         id="path8137"
         fill="#351321"
         d="M-769 497c24.3 0 44 19.7 44 44s-19.7 44-44 44-44-19.7-44-44 19.7-44 44-44m0-3c-26 0-47 21-47 47s21 47 47 47 47-21 47-47-21-47-47-47z"
         style="fill:#132135;fill-opacity:1" />
    </g>
    <circle
       id="circle8141"
       cx="-769"
       cy="541"
       r="27.3"
       fill="#63263f"
       style="fill:#7c9aba;fill-opacity:1" />
  </g>
  <g
     id="g8159">
    <g
       id="g8149">
      <path
         id="path8145"
         d="M-577 586.5c-25.1 0-45.5-20.4-45.5-45.5s20.4-45.5 45.5-45.5 45.5 20.4 45.5 45.5-20.4 45.5-45.5 45.5z"
         class="st3" />
      <path
         id="path8147"
         d="M-577 497c24.3 0 44 19.7 44 44s-19.7 44-44 44-44-19.7-44-44 19.7-44 44-44m0-3c-26 0-47 21-47 47s21 47 47 47 47-21 47-47-21-47-47-47z"
         class="st4" />
    </g>
    <circle
       id="circle8151"
       cx="-577"
       cy="541"
       r="27.3"
       class="st5" />
    <g
       id="g8157">
      <path
         id="path8153"
         d="M-597.3 527.5h12.6c5.8 0 8.7 2.7 8.7 7.1 0 5.1-3.5 6.4-4.4 6.7v.1c1.6.2 3.9 1.4 3.9 5.6 0 3.1.4 5.9 1.4 7h-5c-.7-1.1-.7-2.6-.7-3.9 0-4.8-1-7-5.3-7h-6.8V554h-4.6v-26.5h.2zm4.6 12.1h7.6c3 0 4.5-1.4 4.5-4.2 0-3.4-2.2-4-4.6-4h-7.5v8.2z" />
      <path
         id="path8155"
         d="M-565.7 538.8c2.8.1 5.7-.9 5.7-4.1 0-2.2-1.7-3.7-4-3.7-2.9 0-4.4 2.6-4.3 5.3h-4.2c.2-5 3.4-8.8 8.6-8.8 4 0 8.2 2.3 8.2 6.9 0 2.6-1.1 4.7-3.7 5.5v.1c3 .6 4.7 3.1 4.7 6.5 0 4.9-4.3 7.9-9.2 7.9-6 0-9-3.6-9.1-9h4.2c-.1 3.1 1.6 5.5 4.9 5.5 2.8 0 5-1.7 5-4.6 0-4-3.4-4.5-6.8-4.4v-3.1z" />
    </g>
  </g>
  <g
     id="g8175">
    <g
       id="g8165">
      <path
         id="path8161"
         d="M-673 586.5c-25.1 0-45.5-20.4-45.5-45.5s20.4-45.5 45.5-45.5 45.5 20.4 45.5 45.5-20.4 45.5-45.5 45.5z"
         class="st3" />
      <path
         id="path8163"
         d="M-673 497c24.3 0 44 19.7 44 44s-19.7 44-44 44-44-19.7-44-44 19.7-44 44-44m0-3c-26 0-47 21-47 47s21 47 47 47 47-21 47-47-21-47-47-47z"
         class="st4" />
    </g>
    <circle
       id="circle8167"
       cx="-673"
       cy="541"
       r="27.3"
       class="st5" />
    <g
       id="g8173">
      <path
         id="path8169"
         d="M-690.9 527.5h4.6v22.4h13.4v4h-18v-26.4z" />
      <path
         id="path8171"
         d="M-664.1 538.8c2.8.1 5.7-.9 5.7-4.1 0-2.2-1.7-3.7-4-3.7-2.9 0-4.4 2.6-4.3 5.3h-4.2c.2-5 3.4-8.8 8.6-8.8 4 0 8.2 2.3 8.2 6.9 0 2.6-1.1 4.7-3.7 5.5v.1c3 .6 4.7 3.1 4.7 6.5 0 4.9-4.3 7.9-9.2 7.9-6 0-9-3.6-9.1-9h4.2c-.1 3.1 1.6 5.5 4.9 5.5 2.8 0 5-1.7 5-4.6 0-4-3.4-4.5-6.8-4.4v-3.1z" />
    </g>
  </g>
</svg>
