<?xml version="1.0" encoding="UTF-8" standalone="no"?>
<svg
   xmlns:dc="http://purl.org/dc/elements/1.1/"
   xmlns:cc="http://creativecommons.org/ns#"
   xmlns:rdf="http://www.w3.org/1999/02/22-rdf-syntax-ns#"
   xmlns:svg="http://www.w3.org/2000/svg"
   xmlns="http://www.w3.org/2000/svg"
   xmlns:sodipodi="http://sodipodi.sourceforge.net/DTD/sodipodi-0.dtd"
   xmlns:inkscape="http://www.inkscape.org/namespaces/inkscape"
   width="178.5"
   height="104"
   viewBox="-432 743.3 178.5 104"
   version="1.1"
   id="svg46"
   sodipodi:docname="ds4_face.svg"
   inkscape:version="0.92.4 (5da689c313, 2019-01-14)">
  <metadata
     id="metadata52">
    <rdf:RDF>
      <cc:Work
         rdf:about="">
        <dc:format>image/svg+xml</dc:format>
        <dc:type
           rdf:resource="http://purl.org/dc/dcmitype/StillImage" />
      </cc:Work>
    </rdf:RDF>
  </metadata>
  <defs
     id="defs50" />
  <sodipodi:namedview
     pagecolor="#ffffff"
     bordercolor="#666666"
     borderopacity="1"
     objecttolerance="10"
     gridtolerance="10"
     guidetolerance="10"
     inkscape:pageopacity="0"
     inkscape:pageshadow="2"
     inkscape:window-width="1920"
     inkscape:window-height="1018"
     id="namedview48"
     showgrid="false"
     inkscape:zoom="4.5001305"
     inkscape:cx="55.183752"
     inkscape:cy="65.844686"
     inkscape:window-x="-8"
     inkscape:window-y="-8"
     inkscape:window-maximized="1"
     inkscape:current-layer="svg46" />
  <title
     id="title2" />
  <path
     fill="#63263f"
     d="M-307.5 763.9c1.4-2 1.2-2.9 1.2-2.9s.2-.9-1.2-2.9-15-13.6-15.7-14c-.7-.4-28.5-2.2-31.4 1.3s-2.6 15.6-2.6 15.6-.3 12.1 2.6 15.6 30.7 1.7 31.4 1.3 14.3-12 15.7-14z"
     id="path4"
     style="fill:#5d738b;fill-opacity:1" />
  <path
     d="M-307.5 763.9c1.4-2 1.2-2.9 1.2-2.9s.2-.9-1.2-2.9c-.9-1.3-6.9-6.6-11.2-10.3-2.1 3.9-3.4 8.4-3.4 13.2 0 4.8 1.2 9.3 3.4 13.2 4.3-3.7 10.3-9 11.2-10.3z"
     opacity=".25"
     id="path6" />
  <path
     fill="#63263f"
     d="M-379.8 793c2 1.4 2.9 1.2 2.9 1.2s.9.2 2.9-1.2 13.6-15 14-15.7 2.2-28.5-1.3-31.4c-3.5-2.9-15.6-2.6-15.6-2.6s-12.1-.2-15.6 2.6c-3.5 2.8-1.7 30.7-1.3 31.4.4.7 12 14.3 14 15.7z"
     id="path8"
     style="fill:#5d738b;fill-opacity:1" />
  <path
     d="M-379.8 793c2 1.4 2.9 1.2 2.9 1.2s.9.2 2.9-1.2c1.3-.9 6.6-6.9 10.3-11.2-3.9-2.1-8.4-3.4-13.2-3.4-4.8 0-9.3 1.2-13.2 3.4 3.7 4.3 9 10.3 10.3 11.2z"
     opacity=".25"
     id="path10" />
  <g
     id="g16">
    <path
       fill="#63263f"
       d="M-256.1 745.5c-2.9-3.5-30.7-1.7-31.4-1.3-.7.4-14.3 12-15.7 14s-1.2 2.9-1.2 2.9-.2.9 1.2 2.9 15 13.6 15.7 14c.7.4 28.5 2.2 31.4-1.3 2.9-3.5 2.6-15.6 2.6-15.6s.3-12.1-2.6-15.6z"
       id="path12"
       style="fill:#5d738b;fill-opacity:1" />
    <path
       d="M-291.9 747.9c-4.3 3.7-10.3 9-11.2 10.3-1.4 2-1.2 2.9-1.2 2.9s-.2.9 1.2 2.9c.9 1.3 6.9 6.6 11.2 10.3 2.1-3.9 3.4-8.4 3.4-13.2 0-4.8-1.3-9.3-3.4-13.2z"
       opacity=".25"
       id="path14" />
  </g>
  <g
     id="g22">
    <path
       fill="#63263f"
       d="M-411.4 744.5c-2-1.4-2.9-1.2-2.9-1.2s-.9-.2-2.9 1.2-13.6 15-14 15.7-2.2 28.5 1.3 31.4c3.5 2.9 15.6 2.6 15.6 2.6s12.1.3 15.6-2.6 1.7-30.7 1.3-31.4c-.4-.7-12-14.3-14-15.7z"
       id="path18"
       style="fill:#5d738b;fill-opacity:1" />
    <path
       d="M-411.4 744.5c-2-1.4-2.9-1.2-2.9-1.2s-.9-.2-2.9 1.2c-1.3.9-6.6 6.9-10.3 11.2 3.9 2.1 8.4 3.4 13.2 3.4 4.8 0 9.3-1.2 13.2-3.4-3.7-4.3-9-10.3-10.3-11.2z"
       opacity=".25"
       id="path20" />
  </g>
  <g
     id="g44">
    <path
       fill="#E6E6E6"
       d="M-307.5 816.9c1.4-2 1.2-2.9 1.2-2.9s.2-.9-1.2-2.9-15-13.6-15.7-14c-.7-.4-28.5-2.2-31.4 1.3s-2.6 15.6-2.6 15.6-.3 12.1 2.6 15.6 30.7 1.7 31.4 1.3 14.3-12 15.7-14z"
       id="path24" />
    <path
       fill="#FFF"
       d="M-307.5 816.9c1.4-2 1.2-2.9 1.2-2.9s.2-.9-1.2-2.9c-.9-1.3-6.9-6.6-11.2-10.3-2.1 3.9-3.4 8.4-3.4 13.2s1.2 9.3 3.4 13.2c4.3-3.7 10.3-9 11.2-10.3z"
       opacity=".25"
       id="path26"
       style="fill:#666666;fill-opacity:1" />
    <path
       fill="#E6E6E6"
       d="M-379.8 846c2 1.4 2.9 1.2 2.9 1.2s.9.2 2.9-1.2 13.6-15 14-15.7 2.2-28.5-1.3-31.4c-3.5-2.9-15.6-2.6-15.6-2.6s-12.1-.2-15.6 2.6-1.7 30.7-1.3 31.4c.4.7 12 14.3 14 15.7z"
       id="path28" />
    <path
       fill="#FFF"
       d="M-379.8 846c2 1.4 2.9 1.2 2.9 1.2s.9.2 2.9-1.2c1.3-.9 6.6-6.9 10.3-11.2-3.9-2.1-8.4-3.4-13.2-3.4-4.8 0-9.3 1.2-13.2 3.4 3.7 4.3 9 10.3 10.3 11.2z"
       opacity=".25"
       id="path30"
       style="fill:#666666;fill-opacity:1" />
    <g
       id="g36">
      <path
         fill="#E6E6E6"
         d="M-256.1 798.4c-2.9-3.5-30.7-1.7-31.4-1.3-.7.4-14.3 12-15.7 14-1.4 2-1.2 2.9-1.2 2.9s-.2.9 1.2 2.9 15 13.6 15.7 14c.7.4 28.5 2.2 31.4-1.3 2.9-3.5 2.6-15.6 2.6-15.6s.3-12.1-2.6-15.6z"
         id="path32" />
      <path
         fill="#FFF"
         d="M-291.9 800.9c-4.3 3.7-10.3 9-11.2 10.3-1.4 2-1.2 2.9-1.2 2.9s-.2.9 1.2 2.9c.9 1.3 6.9 6.6 11.2 10.3 2.1-3.9 3.4-8.4 3.4-13.2 0-4.8-1.3-9.3-3.4-13.2z"
         opacity=".25"
         id="path34"
         style="fill:#666666;fill-opacity:1" />
    </g>
    <g
       id="g42">
      <path
         fill="#E6E6E6"
         d="M-411.4 797.5c-2-1.4-2.9-1.2-2.9-1.2s-.9-.2-2.9 1.2-13.6 15-14 15.7-2.2 28.5 1.3 31.4c3.5 2.9 15.6 2.6 15.6 2.6s12.1.3 15.6-2.6 1.7-30.7 1.3-31.4c-.4-.7-12-14.3-14-15.7z"
         id="path38" />
      <path
         fill="#FFF"
         d="M-411.4 797.5c-2-1.4-2.9-1.2-2.9-1.2s-.9-.2-2.9 1.2c-1.3.9-6.6 6.9-10.3 11.2 3.9 2.1 8.4 3.4 13.2 3.4 4.8 0 9.3-1.2 13.2-3.4-3.7-4.3-9-10.3-10.3-11.2z"
         opacity=".25"
         id="path40"
         style="fill:#666666;fill-opacity:1" />
    </g>
  </g>
</svg>
